<svg width="76" height="72" viewBox="0 0 76 72" fill="none" xmlns="http://www.w3.org/2000/svg">
<g clip-path="url(#clip0_21_4)">
<g filter="url(#filter0_d_21_4)">
<path fill-rule="evenodd" clip-rule="evenodd" d="M38 68C55.6731 68 70 53.6731 70 36C70 18.3269 55.6731 4 38 4C20.3269 4 6 18.3269 6 36C6 53.6731 20.3269 68 38 68Z" fill="white"/>
</g>
<path fill-rule="evenodd" clip-rule="evenodd" d="M46.6667 48.9769C45.1982 51.3064 41.8018 51.3064 40.3333 48.9769L32.6186 36.7399C31.0471 34.2471 32.8385 31 35.7854 31L51.2146 31C54.1615 31 55.9529 34.2471 54.3814 36.7399L46.6667 48.9769Z" fill="url(#paint0_linear_21_4)"/>
<path fill-rule="evenodd" clip-rule="evenodd" d="M29.3333 26.0231C30.8018 23.6936 34.1982 23.6936 35.6667 26.0231L43.3814 38.2601C44.9529 40.7529 43.1615 44 40.2146 44H24.7854C21.8385 44 20.0471 40.7529 21.6186 38.2601L29.3333 26.0231Z" fill="url(#paint1_linear_21_4)"/>
</g>
<defs>
<filter id="filter0_d_21_4" x="-10" y="-4" width="96" height="96" filterUnits="userSpaceOnUse" color-interpolation-filters="sRGB">
<feFlood flood-opacity="0" result="BackgroundImageFix"/>
<feColorMatrix in="SourceAlpha" type="matrix" values="0 0 0 0 0 0 0 0 0 0 0 0 0 0 0 0 0 0 127 0" result="hardAlpha"/>
<feOffset dy="8"/>
<feGaussianBlur stdDeviation="8"/>
<feColorMatrix type="matrix" values="0 0 0 0 0 0 0 0 0 0 0 0 0 0 0 0 0 0 0.0535402 0"/>
<feBlend mode="normal" in2="BackgroundImageFix" result="effect1_dropShadow_21_4"/>
<feBlend mode="normal" in="SourceGraphic" in2="effect1_dropShadow_21_4" result="shape"/>
</filter>
<linearGradient id="paint0_linear_21_4" x1="42.9912" y1="26.0449" x2="32.3544" y2="44.7008" gradientUnits="userSpaceOnUse">
<stop stop-color="#FFD7A9"/>
<stop offset="1" stop-color="#FFAE70"/>
</linearGradient>
<linearGradient id="paint1_linear_21_4" x1="34.3521" y1="49.4372" x2="49.4268" y2="29.8284" gradientUnits="userSpaceOnUse">
<stop stop-color="#CD10FF"/>
<stop offset="1" stop-color="#9F06FF"/>
</linearGradient>
<clipPath id="clip0_21_4">
<rect width="76" height="72" rx="36" fill="white"/>
</clipPath>
</defs>
</svg>
