<svg width="199" height="41" viewBox="0 0 199 41" fill="none" xmlns="http://www.w3.org/2000/svg">
<path d="M28.615 33.717L2.03726 15.3837C-0.656078 13.5259 0.259478 9.65777 3.618 8.74814L31.8654 1.08147C33.0794 0.643414 34.4302 0.818032 35.4929 1.5504C36.5556 2.28277 37.1996 3.4829 37.2224 4.77332L35.5484 30.7718C35.3498 33.8578 31.3084 35.5748 28.615 33.717Z" fill="url(#paint0_linear_4_3843)"/>
<path d="M20.186 38.243L4.52826 7.62223C3.7985 6.19395 3.93045 4.47722 4.8699 3.17724C5.80935 1.87725 7.39792 1.21317 8.98307 1.45779L38.0009 5.93631C39.3561 6.14549 40.5285 6.99269 41.1525 8.21378C41.7766 9.43487 41.7764 10.8813 41.152 12.1022L27.7846 38.2445C27.0528 39.6685 25.5859 40.5637 23.9848 40.5634C22.3837 40.5631 20.9173 39.6673 20.186 38.243Z" fill="url(#paint1_linear_4_3843)"/>
<path d="M37.151 5.80437L22.6858 3.57178L4.92578 8.394L12.0147 22.2621L28.6147 33.717C28.9809 33.9668 29.3837 34.1582 29.8087 34.2844L36.1139 21.954L37.151 5.80437Z" fill="#001A49"/>
<path fill-rule="evenodd" clip-rule="evenodd" d="M113.14 6.66528C111.639 6.66528 110.422 7.88241 110.422 9.3838C110.437 10.8788 111.645 12.0871 113.14 12.1023C114.642 12.1023 115.859 10.8852 115.859 9.3838C115.859 7.88241 114.642 6.66528 113.14 6.66528ZM115.407 13.4312H110.875V28.5334H115.407V13.4312Z" fill="#001A49"/>
<path fill-rule="evenodd" clip-rule="evenodd" d="M133.027 26.4707C134.382 24.9738 135.084 22.9985 134.977 20.9823C135.084 18.9663 134.382 16.9911 133.027 15.4944C131.672 13.9978 129.776 13.1032 127.76 13.009C126.059 12.916 124.407 13.5921 123.259 14.8504V13.4312H118.729V34.5749H123.259V27.1141C124.406 28.3731 126.059 29.0497 127.76 28.9571C129.776 28.8625 131.672 27.9676 133.027 26.4707ZM126.792 17.4776C128.766 17.4445 130.397 19.0089 130.447 20.9823C130.516 21.9632 130.163 22.927 129.476 23.631C128.79 24.3351 127.835 24.7125 126.853 24.6682C124.879 24.6684 123.274 23.077 123.257 21.103C123.241 19.129 124.818 17.5108 126.792 17.4776Z" fill="#001A49"/>
<path d="M148.96 24.0001C148.96 27.4741 145.939 28.9541 142.677 28.9541C139.98 29.1982 137.408 27.7735 136.184 25.3586L140.11 23.1245C140.438 24.2488 141.509 24.99 142.677 24.9023C143.764 24.9023 144.307 24.569 144.307 23.966C144.307 22.3038 136.877 23.1808 136.877 17.9541C136.877 14.6623 139.655 13.0016 142.803 13.0016C145.208 12.9261 147.463 14.1638 148.692 16.2327L144.827 18.3171C144.481 17.5066 143.684 16.9816 142.803 16.9838C142.018 16.9838 141.535 17.2801 141.535 17.8297C141.53 19.563 148.96 18.4149 148.96 24.0001Z" fill="#001A49"/>
<path d="M165.519 13.4312V28.5334H160.989V27.1112C159.927 28.382 158.321 29.0673 156.669 28.9541C153.619 28.9541 151.021 26.7793 151.021 22.7008V13.4312H155.552V22.04C155.475 22.7686 155.722 23.4942 156.229 24.0237C156.735 24.5531 157.449 24.8328 158.18 24.7882C159.841 24.7882 160.995 23.8223 160.995 21.6771V13.4312H165.519Z" fill="#001A49"/>
<path d="M191.485 19.2592V28.5333H186.955V19.6533C186.955 18.1436 186.229 17.1762 184.78 17.1762C183.269 17.1762 182.425 18.234 182.425 20.0162V28.5333H177.893V19.6533C177.893 18.1436 177.168 17.1762 175.718 17.1762C174.208 17.1762 173.362 18.234 173.362 20.0162V28.5333H168.832V13.431H173.37V14.8147C174.324 13.5628 175.848 12.8805 177.417 13.0029C178.995 12.9258 180.497 13.6822 181.374 14.9955C182.395 13.6224 184.049 12.8699 185.755 13.0029C189.222 13.0088 191.485 15.4844 191.485 19.2592Z" fill="#001A49"/>
<path d="M195.324 13.3377C197.181 13.3377 198.687 11.8321 198.687 9.97478C198.687 8.11747 197.181 6.61182 195.324 6.61182C193.467 6.61182 191.961 8.11747 191.961 9.97478C191.961 11.8321 193.467 13.3377 195.324 13.3377Z" fill="#001A49"/>
<path fill-rule="evenodd" clip-rule="evenodd" d="M48.5664 6.48438H53.0983V28.5333H48.5664V6.48438ZM55.6642 20.9822C55.654 17.7442 57.5967 14.8194 60.5852 13.5732C63.5738 12.327 67.0189 13.0052 69.3121 15.2912C71.6053 17.5772 72.2944 21.0201 71.0576 24.0126C69.8208 27.0051 66.9022 28.957 63.6642 28.957C61.5399 28.9797 59.4957 28.1476 57.9912 26.6478C56.4867 25.148 55.6482 23.1065 55.6642 20.9822ZM63.6099 17.599C65.5164 17.5661 67.0931 19.076 67.1427 20.9822H67.1486C67.1982 21.9271 66.8505 22.8497 66.1895 23.5267C65.5285 24.2038 64.6145 24.5736 63.6686 24.5466C61.7619 24.546 60.212 23.0086 60.1959 21.1019C60.1797 19.1952 61.7035 17.6318 63.6099 17.599ZM89.7338 13.4266V27.7747C89.7338 32.8488 85.7768 34.9925 81.7605 34.9925C78.8783 35.2101 76.116 33.7998 74.602 31.3377L78.4671 29.1022C79.106 30.3929 80.4788 31.1516 81.9116 31.0059C82.8161 31.1294 83.7278 30.8358 84.3903 30.2076C85.0527 29.5794 85.3943 28.6846 85.319 27.7747V26.3851C84.2428 27.7011 82.6067 28.4293 80.9086 28.3481C76.7644 28.2193 73.4715 24.8225 73.4715 20.6762C73.4715 16.53 76.7644 13.1332 80.9086 13.0044C82.6067 12.9231 84.2428 13.6513 85.319 14.9673V13.4266H89.7338ZM83.1725 17.1898C84.534 17.8036 85.386 19.1832 85.3249 20.6755V20.6799C85.3516 21.6445 84.9694 22.5754 84.2727 23.243C83.576 23.9106 82.6297 24.2528 81.6671 24.1851C80.1736 24.1845 78.8304 23.2762 78.2734 21.8905C77.7165 20.5047 78.0576 18.9195 79.1353 17.8855C80.2129 16.8514 81.8109 16.5761 83.1725 17.1898ZM92.2997 20.9718C92.2895 17.7338 94.2322 14.809 97.2208 13.5628C100.209 12.3166 103.654 12.9948 105.948 15.2808C108.241 17.5668 108.93 21.0097 107.693 24.0022C106.456 26.9947 103.538 28.9466 100.3 28.9466C98.1773 28.9693 96.1347 28.1386 94.6305 26.6411C93.1263 25.1436 92.2865 23.1047 92.2997 20.9822V20.9718ZM100.244 17.5856C102.152 17.553 103.729 19.0644 103.778 20.9718V20.9822C103.825 21.9243 103.476 22.8431 102.817 23.5176C102.158 24.1922 101.247 24.5613 100.304 24.5362C98.3962 24.5364 96.8448 22.9984 96.8284 21.0905C96.812 19.1826 98.3368 17.6182 100.244 17.5856Z" fill="#001A49"/>
<defs>
<linearGradient id="paint0_linear_4_3843" x1="19.4876" y1="41.733" x2="36.0901" y2="16.4981" gradientUnits="userSpaceOnUse">
<stop stop-color="#FFD7A9"/>
<stop offset="1" stop-color="#FFAE70"/>
</linearGradient>
<linearGradient id="paint1_linear_4_3843" x1="25.2392" y1="49.8199" x2="51.7938" y2="23.5415" gradientUnits="userSpaceOnUse">
<stop stop-color="#CD10FF"/>
<stop offset="1" stop-color="#9F06FF"/>
</linearGradient>
</defs>
</svg>
